<mxfile host="app.diagrams.net" modified="2023-09-13T14:22:27.677Z" agent="Mozilla/5.0 (Macintosh; Intel Mac OS X 10_15_7) AppleWebKit/537.36 (KHTML, like Gecko) Chrome/116.0.0.0 Safari/537.36" etag="xVA0CdSLzkpJsXAsnxpC" version="21.7.4" type="github">
  <diagram id="C5RBs43oDa-KdzZeNtuy" name="Page-1">
    <mxGraphModel dx="977" dy="624" grid="1" gridSize="10" guides="1" tooltips="1" connect="1" arrows="1" fold="1" page="1" pageScale="1" pageWidth="827" pageHeight="1169" math="0" shadow="0">
      <root>
        <mxCell id="WIyWlLk6GJQsqaUBKTNV-0" />
        <mxCell id="WIyWlLk6GJQsqaUBKTNV-1" parent="WIyWlLk6GJQsqaUBKTNV-0" />
        <mxCell id="JSzMe7RM2UL-M2G53TIr-12" value="" style="edgeStyle=orthogonalEdgeStyle;rounded=0;orthogonalLoop=1;jettySize=auto;html=1;" edge="1" parent="WIyWlLk6GJQsqaUBKTNV-1" source="JSzMe7RM2UL-M2G53TIr-0" target="JSzMe7RM2UL-M2G53TIr-11">
          <mxGeometry relative="1" as="geometry" />
        </mxCell>
        <mxCell id="JSzMe7RM2UL-M2G53TIr-0" value="Actor" style="shape=umlActor;verticalLabelPosition=bottom;verticalAlign=top;html=1;outlineConnect=0;" vertex="1" parent="WIyWlLk6GJQsqaUBKTNV-1">
          <mxGeometry x="40" y="120" width="30" height="60" as="geometry" />
        </mxCell>
        <mxCell id="JSzMe7RM2UL-M2G53TIr-14" value="" style="edgeStyle=orthogonalEdgeStyle;rounded=0;orthogonalLoop=1;jettySize=auto;html=1;" edge="1" parent="WIyWlLk6GJQsqaUBKTNV-1" source="JSzMe7RM2UL-M2G53TIr-11" target="JSzMe7RM2UL-M2G53TIr-13">
          <mxGeometry relative="1" as="geometry" />
        </mxCell>
        <mxCell id="JSzMe7RM2UL-M2G53TIr-15" value="是" style="edgeLabel;html=1;align=center;verticalAlign=middle;resizable=0;points=[];" vertex="1" connectable="0" parent="JSzMe7RM2UL-M2G53TIr-14">
          <mxGeometry x="-0.1577" y="-1" relative="1" as="geometry">
            <mxPoint as="offset" />
          </mxGeometry>
        </mxCell>
        <mxCell id="JSzMe7RM2UL-M2G53TIr-17" value="" style="edgeStyle=orthogonalEdgeStyle;rounded=0;orthogonalLoop=1;jettySize=auto;html=1;" edge="1" parent="WIyWlLk6GJQsqaUBKTNV-1" source="JSzMe7RM2UL-M2G53TIr-11" target="JSzMe7RM2UL-M2G53TIr-16">
          <mxGeometry relative="1" as="geometry" />
        </mxCell>
        <mxCell id="JSzMe7RM2UL-M2G53TIr-18" value="否" style="edgeLabel;html=1;align=center;verticalAlign=middle;resizable=0;points=[];" vertex="1" connectable="0" parent="JSzMe7RM2UL-M2G53TIr-17">
          <mxGeometry x="-0.2232" y="1" relative="1" as="geometry">
            <mxPoint as="offset" />
          </mxGeometry>
        </mxCell>
        <mxCell id="JSzMe7RM2UL-M2G53TIr-11" value="是否登录" style="rhombus;whiteSpace=wrap;html=1;verticalAlign=middle;rounded=1;" vertex="1" parent="WIyWlLk6GJQsqaUBKTNV-1">
          <mxGeometry x="125" y="110" width="80" height="80" as="geometry" />
        </mxCell>
        <mxCell id="JSzMe7RM2UL-M2G53TIr-13" value="正常响应" style="rounded=1;whiteSpace=wrap;html=1;" vertex="1" parent="WIyWlLk6GJQsqaUBKTNV-1">
          <mxGeometry x="105" y="240" width="120" height="60" as="geometry" />
        </mxCell>
        <mxCell id="JSzMe7RM2UL-M2G53TIr-24" value="" style="edgeStyle=orthogonalEdgeStyle;rounded=0;orthogonalLoop=1;jettySize=auto;html=1;" edge="1" parent="WIyWlLk6GJQsqaUBKTNV-1" source="JSzMe7RM2UL-M2G53TIr-16" target="JSzMe7RM2UL-M2G53TIr-23">
          <mxGeometry relative="1" as="geometry" />
        </mxCell>
        <mxCell id="JSzMe7RM2UL-M2G53TIr-16" value="打开登录注册弹框&lt;br&gt;输入邮箱、密码登录" style="rounded=1;whiteSpace=wrap;html=1;" vertex="1" parent="WIyWlLk6GJQsqaUBKTNV-1">
          <mxGeometry x="310" y="120" width="120" height="60" as="geometry" />
        </mxCell>
        <mxCell id="JSzMe7RM2UL-M2G53TIr-26" value="" style="edgeStyle=orthogonalEdgeStyle;rounded=0;orthogonalLoop=1;jettySize=auto;html=1;" edge="1" parent="WIyWlLk6GJQsqaUBKTNV-1" source="JSzMe7RM2UL-M2G53TIr-23" target="JSzMe7RM2UL-M2G53TIr-25">
          <mxGeometry relative="1" as="geometry" />
        </mxCell>
        <mxCell id="JSzMe7RM2UL-M2G53TIr-31" value="否" style="edgeLabel;html=1;align=center;verticalAlign=middle;resizable=0;points=[];" vertex="1" connectable="0" parent="JSzMe7RM2UL-M2G53TIr-26">
          <mxGeometry x="-0.2457" relative="1" as="geometry">
            <mxPoint as="offset" />
          </mxGeometry>
        </mxCell>
        <mxCell id="JSzMe7RM2UL-M2G53TIr-37" value="" style="edgeStyle=orthogonalEdgeStyle;rounded=0;orthogonalLoop=1;jettySize=auto;html=1;" edge="1" parent="WIyWlLk6GJQsqaUBKTNV-1" source="JSzMe7RM2UL-M2G53TIr-23" target="JSzMe7RM2UL-M2G53TIr-36">
          <mxGeometry relative="1" as="geometry" />
        </mxCell>
        <mxCell id="JSzMe7RM2UL-M2G53TIr-38" value="是" style="edgeLabel;html=1;align=center;verticalAlign=middle;resizable=0;points=[];" vertex="1" connectable="0" parent="JSzMe7RM2UL-M2G53TIr-37">
          <mxGeometry x="-0.2107" y="-1" relative="1" as="geometry">
            <mxPoint as="offset" />
          </mxGeometry>
        </mxCell>
        <mxCell id="JSzMe7RM2UL-M2G53TIr-23" value="是否注册" style="rhombus;whiteSpace=wrap;html=1;rounded=1;" vertex="1" parent="WIyWlLk6GJQsqaUBKTNV-1">
          <mxGeometry x="520" y="110" width="80" height="80" as="geometry" />
        </mxCell>
        <mxCell id="JSzMe7RM2UL-M2G53TIr-25" value="注册用户并登录" style="whiteSpace=wrap;html=1;rounded=1;" vertex="1" parent="WIyWlLk6GJQsqaUBKTNV-1">
          <mxGeometry x="500" y="240" width="120" height="60" as="geometry" />
        </mxCell>
        <mxCell id="JSzMe7RM2UL-M2G53TIr-40" value="" style="edgeStyle=orthogonalEdgeStyle;rounded=0;orthogonalLoop=1;jettySize=auto;html=1;" edge="1" parent="WIyWlLk6GJQsqaUBKTNV-1" source="JSzMe7RM2UL-M2G53TIr-36" target="JSzMe7RM2UL-M2G53TIr-39">
          <mxGeometry relative="1" as="geometry" />
        </mxCell>
        <mxCell id="JSzMe7RM2UL-M2G53TIr-41" value="否" style="edgeLabel;html=1;align=center;verticalAlign=middle;resizable=0;points=[];" vertex="1" connectable="0" parent="JSzMe7RM2UL-M2G53TIr-40">
          <mxGeometry x="-0.1314" y="-3" relative="1" as="geometry">
            <mxPoint as="offset" />
          </mxGeometry>
        </mxCell>
        <mxCell id="JSzMe7RM2UL-M2G53TIr-43" value="" style="edgeStyle=orthogonalEdgeStyle;rounded=0;orthogonalLoop=1;jettySize=auto;html=1;" edge="1" parent="WIyWlLk6GJQsqaUBKTNV-1" source="JSzMe7RM2UL-M2G53TIr-36" target="JSzMe7RM2UL-M2G53TIr-42">
          <mxGeometry relative="1" as="geometry" />
        </mxCell>
        <mxCell id="JSzMe7RM2UL-M2G53TIr-44" value="是" style="edgeLabel;html=1;align=center;verticalAlign=middle;resizable=0;points=[];" vertex="1" connectable="0" parent="JSzMe7RM2UL-M2G53TIr-43">
          <mxGeometry x="-0.1381" y="3" relative="1" as="geometry">
            <mxPoint as="offset" />
          </mxGeometry>
        </mxCell>
        <mxCell id="JSzMe7RM2UL-M2G53TIr-36" value="用户信息&lt;br&gt;是否正确" style="rhombus;whiteSpace=wrap;html=1;rounded=1;" vertex="1" parent="WIyWlLk6GJQsqaUBKTNV-1">
          <mxGeometry x="680" y="110" width="80" height="80" as="geometry" />
        </mxCell>
        <mxCell id="JSzMe7RM2UL-M2G53TIr-39" value="返回登录错误" style="whiteSpace=wrap;html=1;rounded=1;" vertex="1" parent="WIyWlLk6GJQsqaUBKTNV-1">
          <mxGeometry x="660" y="240" width="120" height="60" as="geometry" />
        </mxCell>
        <mxCell id="JSzMe7RM2UL-M2G53TIr-42" value="登录成功" style="whiteSpace=wrap;html=1;rounded=1;" vertex="1" parent="WIyWlLk6GJQsqaUBKTNV-1">
          <mxGeometry x="820" y="120" width="120" height="60" as="geometry" />
        </mxCell>
      </root>
    </mxGraphModel>
  </diagram>
</mxfile>
